<?xml version="1.0" standalone="no"?>
<!DOCTYPE svg PUBLIC "-//W3C//DTD SVG 20010904//EN"
 "http://www.w3.org/TR/2001/REC-SVG-20010904/DTD/svg10.dtd">
<svg version="1.0" xmlns="http://www.w3.org/2000/svg"
 width="1024.000000pt" height="1024.000000pt" viewBox="0 0 1024.000000 1024.000000"
 preserveAspectRatio="xMidYMid meet">

<g transform="translate(0.000000,1024.000000) scale(0.100000,-0.100000)"
fill="#000000" stroke="none">
<path d="M0 5120 l0 -5120 5120 0 5120 0 0 5120 0 5120 -5120 0 -5120 0 0
-5120z m6402 1601 l77 -1 -2 -107 -2 -108 -250 -5 -250 -5 2 -112 c1 -88 -2
-113 -13 -117 -8 -3 -58 -4 -112 -2 -53 1 -101 1 -107 -1 -6 -2 -9 -48 -7
-118 l3 -115 113 0 c62 0 115 -2 117 -4 2 -2 3 -53 1 -113 l-3 -108 -112 -1
c-62 -1 -223 -2 -359 -3 l-248 -1 0 -575 0 -575 245 0 246 0 -3 -117 -3 -118
-117 0 -118 0 0 -237 0 -238 120 0 120 0 0 115 0 115 114 0 c63 0 116 -3 118
-7 2 -5 0 -44 -3 -88 -4 -63 -6 -70 -9 -35 -3 45 -3 45 -7 8 -2 -20 1 -46 7
-58 7 -13 7 -20 0 -20 -5 0 -10 -7 -10 -15 0 -12 -18 -15 -105 -15 l-105 0 0
-120 0 -121 -240 2 -239 1 -7 34 c-3 18 -4 72 -3 119 3 70 1 85 -11 86 -8 0
-63 0 -122 -1 l-108 -1 0 115 0 116 -262 1 c-145 0 -293 0 -330 -1 -36 -1 -82
2 -102 5 l-36 7 0 114 0 114 365 0 365 0 0 120 0 120 -362 2 -363 3 -3 113 -3
112 -364 0 -365 0 0 120 0 120 245 0 245 0 0 225 0 225 120 0 120 0 0 115 0
115 -485 0 -486 0 3 113 3 112 848 3 847 2 0 115 0 115 120 0 120 0 0 115 0
115 125 0 125 0 0 113 c0 63 3 117 7 121 4 4 190 5 413 2 223 -3 440 -5 482
-5z m-180 -571 l3 -110 -122 0 -123 0 0 106 0 105 55 -2 c30 -1 58 0 62 4 3 4
32 7 64 7 l58 0 3 -110z m-2912 -1150 l0 -120 -125 0 -125 0 0 120 0 120 125
0 125 0 0 -120z m730 -470 l0 -120 -120 0 -120 0 0 120 0 120 120 0 120 0 0
-120z m2180 5 l0 -115 -122 2 -123 2 120 6 c66 3 109 7 96 8 -18 2 -22 6 -16
20 5 14 4 15 -6 5 -9 -9 -44 -13 -101 -13 l-88 0 0 93 c0 52 3 97 7 100 3 4
57 7 120 7 l113 0 0 -115z m500 -952 l0 -113 -167 0 c-93 0 -313 -3 -490 -7
l-323 -6 0 115 c0 63 3 118 8 122 4 4 224 6 489 4 l483 -3 0 -112z m2984
-2831 c28 -66 96 -135 161 -163 30 -13 55 -26 55 -29 0 -3 -21 -14 -48 -24
-66 -28 -135 -96 -163 -161 -13 -30 -27 -55 -30 -55 -3 0 -15 24 -28 54 -27
66 -96 134 -163 162 -27 10 -48 21 -48 24 0 3 25 16 55 29 65 28 133 97 161
163 10 27 21 48 24 48 3 0 14 -21 24 -48z"/>
<path d="M5750 5935 c0 -73 1 -76 17 -59 13 13 14 19 5 22 -16 5 -16 22 1 22
9 0 13 14 13 42 -1 32 -5 44 -18 46 -16 3 -18 -6 -18 -73z"/>
<path d="M5815 5850 c-3 -5 1 -10 9 -10 9 0 16 5 16 10 0 6 -4 10 -9 10 -6 0
-13 -4 -16 -10z"/>
<path d="M5915 5850 c3 -5 8 -10 11 -10 2 0 4 5 4 10 0 6 -5 10 -11 10 -5 0
-7 -4 -4 -10z"/>
<path d="M5898 5823 c7 -3 16 -2 19 1 4 3 -2 6 -13 5 -11 0 -14 -3 -6 -6z"/>
<path d="M6200 6179 c0 -11 -4 -17 -10 -14 -6 4 -10 -11 -10 -39 0 -25 5 -48
10 -51 6 -4 8 -11 5 -16 -4 -5 -1 -9 4 -9 7 0 11 29 11 75 0 41 -2 75 -5 75
-3 0 -5 -9 -5 -21z"/>
<path d="M6203 4560 c0 -47 2 -66 4 -42 2 23 2 61 0 85 -2 23 -4 4 -4 -43z"/>
<path d="M6183 4530 c0 -30 2 -43 4 -27 2 15 2 39 0 55 -2 15 -4 2 -4 -28z"/>
</g>
</svg>
